<svg xmlns="http://www.w3.org/2000/svg" viewBox="0 0 400 335.29"><defs><style>.cls-1{fill:#4ab2f6;}</style></defs><title>Asset 1</title><g id="Layer_2" data-name="Layer 2"><g id="Logo"><path id="I" class="cls-1" d="M294.12,217.65v88.23a29.42,29.42,0,0,1-58.83,0V217.65a29.42,29.42,0,0,1,58.83,0Z"/><path class="cls-1" d="M88.24,158.82a88.16,88.16,0,0,0-29.42,5V100A29.41,29.41,0,0,0,0,100V305.88a29.41,29.41,0,1,0,58.82,0V247.06a29.42,29.42,0,0,1,58.83,0v58.82a29.41,29.41,0,1,0,58.82,0V247.06A88.24,88.24,0,0,0,88.24,158.82Z"/><path id="MessageIcon" class="cls-1" d="M329.41,0H164.71A70.59,70.59,0,0,0,149,139.41h-.58a106.15,106.15,0,0,1,54.35,43,76.47,76.47,0,0,1,63.72-41.09v-.11h62.94A70.59,70.59,0,0,0,329.41,0ZM147.06,70.59A29.41,29.41,0,1,1,176.47,100,29.4,29.4,0,0,1,147.06,70.59Zm100,29.41a29.41,29.41,0,1,1,29.41-29.41A29.4,29.4,0,0,1,247.06,100Zm70.59,0a29.41,29.41,0,1,1,29.41-29.41A29.4,29.4,0,0,1,317.65,100Z"/></g></g></svg>